<?xml version="1.0" encoding="UTF-8" standalone="no"?>
<!-- Created with Inkscape (http://www.inkscape.org/) -->

<svg
   width="180.17303mm"
   height="58.62738mm"
   viewBox="0 0 180.17303 58.62738"
   version="1.1"
   id="svg1407"
   xmlns="http://www.w3.org/2000/svg"
   xmlns:svg="http://www.w3.org/2000/svg">
  <defs
     id="defs1404" />
  <g
     id="layer1"
     transform="translate(-14.913483,-119.18631)">
    <g
       id="g1678"
       transform="matrix(1.0634417,0,0,1.0634417,-7.4471188,-9.4216431)">
      <g
         id="Layer1014"
         transform="matrix(0.30388402,0,0,0.30388402,-22.918457,58.05263)">
        <path
           d="m 529.7944,206.9308 h 163.2765 c 4.9889,0 9.0705,4.0814 9.0705,9.0703 v 163.2765 c 0,4.989 -4.0816,9.0706 -9.0705,9.0706 H 529.7944 c -4.989,0 -9.0703,-4.0816 -9.0703,-9.0706 V 216.0011 c 0,-4.9889 4.0813,-9.0703 9.0703,-9.0703 z"
           style="fill:#01458e;fill-rule:evenodd"
           id="path1136" />
        <g
           id="Layer1015">
          <path
             d="m 556.1705,269.5281 c 29.5948,-6.5932 94.1645,-22.8228 95.4875,-21.0661 1.4012,1.86 -10.9345,19.1664 -8.3338,20.8853 2.6007,1.719 55.3442,-40.9205 14.5309,-34.8441 -31.0486,4.6226 -82.4474,24.8616 -102.2594,33.0536 -4.1631,1.7217 -3.4615,2.8706 0.5748,1.9713 z"
             style="fill:#fefefe;fill-rule:evenodd"
             id="path1138" />
          <path
             d="m 545.9261,318.9132 c 33.292,-6.2328 104.4161,-20.4156 105.9051,-18.6434 1.5771,1.877 -13.043,20.9606 -10.1173,22.7113 2.9264,1.7513 65.687,-40.8997 17.737,-38.2007 -29.0041,1.6324 -88.6607,22.3105 -114.1714,32.1545 -4.6287,1.7856 -3.8941,2.8278 0.6466,1.9783 z"
             style="fill:#ffffff;fill-rule:evenodd"
             id="path1140" />
          <path
             d="m 532.7484,328.32 c 41.8054,5.3156 138.1988,18.5014 139.4692,17.6106 1.2741,-0.8926 -6.7397,-16.2029 -9.2861,-22.9481 -1.2151,-3.2189 0.283,-5.001 3.2898,-2.4743 10.625,8.9311 52.1226,44.2927 9.0163,41.9374 -38.9778,-2.1303 -87.9745,-12.0039 -143.4326,-30.8308 -5.7724,-1.9596 -4.7565,-4.0194 0.9434,-3.2948 z"
             style="fill:#ffffff;fill-rule:evenodd"
             id="path1142" />
        </g>
        <g
           id="Layer1016">
          <path
             d="m 171.2463,261.2217 c 3.5306,0.7061 6.2255,2.1418 8.0847,4.3072 1.8596,2.1654 2.7893,4.8016 2.7893,7.9084 0,4.1896 -1.6123,7.4259 -4.8367,9.7092 -3.2247,2.283 -7.9203,3.4246 -14.0871,3.4246 h -17.6528 v -48.0155 h 17.6528 c 5.5077,0 9.6854,1.0119 12.5334,3.0361 2.848,2.0243 4.2721,5.0134 4.2721,8.9677 0,2.5421 -0.7532,4.7662 -2.2595,6.6728 -1.5063,1.9066 -3.6717,3.2363 -6.4962,3.9895 z M 155.147,245.4049 v 12.4274 h 8.0495 c 2.3066,0 4.0836,-0.5295 5.3311,-1.5886 1.2475,-1.0593 1.8712,-2.6246 1.8712,-4.6958 0,-2.1654 -0.612,-3.7304 -1.8357,-4.6956 -1.224,-0.9649 -3.013,-1.4474 -5.3666,-1.4474 z m 8.0495,34.3168 c 3.0127,0 5.3195,-0.6355 6.9199,-1.9063 1.6005,-1.2711 2.4007,-3.1541 2.4007,-5.6489 0,-4.9898 -3.1068,-7.4849 -9.3206,-7.4849 h -8.0495 v 15.0401 z m 45.3869,7.8378 c -5.2721,0 -9.7679,-1.118 -13.4866,-3.354 -3.7188,-2.2359 -6.5316,-5.2486 -8.4379,-9.0382 -1.9066,-3.7894 -2.8599,-7.9671 -2.8599,-12.5334 0,-4.6131 0.9414,-8.8027 2.8244,-12.5688 1.8831,-3.7659 4.6956,-6.7669 8.4379,-9.0029 3.7426,-2.2359 8.25,-3.3539 13.5221,-3.3539 5.2254,0 9.709,1.118 13.4516,3.3539 3.7423,2.236 6.5667,5.237 8.4733,9.0029 1.9063,3.7661 2.8596,7.9322 2.8596,12.4982 0,4.6134 -0.9533,8.8146 -2.8596,12.604 -1.9066,3.7896 -4.7194,6.8023 -8.4382,9.0382 -3.7188,2.236 -8.2142,3.354 -13.4867,3.354 z m 0.0706,-7.0611 c 3.1541,0 5.8726,-0.7767 8.1556,-2.3301 2.283,-1.5534 4.0249,-3.6836 5.2254,-6.3901 1.2001,-2.7068 1.8005,-5.7785 1.8005,-9.2149 0,-3.3894 -0.6004,-6.4256 -1.8005,-9.1088 -1.2005,-2.6833 -2.9424,-4.8016 -5.2254,-6.355 -2.283,-1.5534 -5.0015,-2.3301 -8.1556,-2.3301 -3.2009,0 -5.9431,0.7767 -8.2261,2.3301 -2.283,1.5534 -4.013,3.6717 -5.19,6.355 -1.1766,2.6832 -1.7651,5.7194 -1.7651,9.1088 0,3.4364 0.5885,6.5081 1.7651,9.2149 1.177,2.7065 2.907,4.8367 5.19,6.3901 2.283,1.5534 5.0252,2.3301 8.2261,2.3301 z m 55.9083,-6.9197 h -17.7942 l -4.519,12.9924 h -9.6738 l 18.5,-48.6511 h 9.1795 l 18.5709,48.6511 h -9.7444 z M 262.1614,266.8 255.6652,248.0173 249.0985,266.8 Z m 77.9388,-28.2444 -18.5,48.4392 h -9.6738 l -18.5,-48.4392 h 9.8149 l 13.6279,39.0478 13.5572,-39.0478 z m 3.1618,0 h 9.6032 v 48.0155 h -9.6032 z m 31.265,49.0039 c -6.6844,0 -12.2156,-1.3178 -16.5935,-3.9541 l 2.3301,-6.7081 c 2.3536,1.224 4.6605,2.1302 6.92,2.7187 2.2595,0.5882 4.6601,0.8824 7.2022,0.8824 2.8715,0 5.2722,-0.5882 7.2023,-1.7651 1.9301,-1.177 2.895,-2.8715 2.895,-5.084 0,-1.3651 -0.4589,-2.5302 -1.3768,-3.4954 -0.9181,-0.9649 -2.0596,-1.7651 -3.4248,-2.4006 -1.3652,-0.6356 -3.2479,-1.3771 -5.6489,-2.2244 -3.1067,-1.1296 -5.6134,-2.177 -7.52,-3.1422 -1.9063,-0.9649 -3.5422,-2.3065 -4.9073,-4.0246 -1.3652,-1.7184 -2.0478,-3.8954 -2.0478,-6.5316 0,-4.4722 1.6594,-7.9438 4.9779,-10.4151 3.3188,-2.4715 7.7086,-3.7071 13.1692,-3.7071 5.4604,0 10.262,1.271 14.4046,3.8129 l -2.3301,6.6376 c -3.9073,-2.2598 -7.8378,-3.3894 -11.7921,-3.3894 -2.6363,0 -4.8016,0.5649 -6.4962,1.6945 -1.6948,1.1299 -2.5421,2.7304 -2.5421,4.8016 0,1.224 0.4354,2.2831 1.3065,3.1774 0.8708,0.8946 1.9533,1.6359 3.2479,2.2243 1.2946,0.5885 3.1187,1.3301 5.4723,2.2244 3.2012,1.1767 5.7903,2.2714 7.7672,3.2834 1.9772,1.0119 3.672,2.4006 5.0842,4.166 1.4123,1.7652 2.1184,4.013 2.1184,6.7434 0,4.519 -1.7184,8.0614 -5.1548,10.6268 -3.4365,2.5656 -8.1907,3.8483 -14.2634,3.8483 z m 58.1678,-42.084 h -14.6166 v 41.0956 h -9.6032 v -41.0956 h -14.6163 v -6.9199 h 38.8361 z m 29.4996,28.1032 h -17.7942 l -4.519,12.9924 h -9.6738 l 18.5,-48.6511 h 9.1794 l 18.5709,48.6511 h -9.7443 z m -2.401,-6.7787 -6.4961,-18.7827 -6.5668,18.7827 z"
             style="fill:#1b1918;fill-rule:evenodd"
             id="path1145" />
          <path
             d="m 162.9232,357.5704 c -7.3766,0 -13.4804,-1.4547 -18.3118,-4.3639 l 2.5716,-7.4027 c 2.5974,1.3507 5.1429,2.3508 7.6363,3.0002 2.4936,0.6494 5.1429,0.974 7.9483,0.974 3.1689,0 5.8181,-0.6494 7.9481,-1.948 2.1299,-1.2988 3.1949,-3.1688 3.1949,-5.6106 0,-1.5063 -0.5065,-2.7921 -1.5196,-3.8571 -1.0129,-1.065 -2.2729,-1.948 -3.7792,-2.6495 -1.5066,-0.7013 -3.5844,-1.5194 -6.2339,-2.4546 -3.4285,-1.2466 -6.1949,-2.4026 -8.2988,-3.4676 -2.1038,-1.0647 -3.9092,-2.5452 -5.4155,-4.4416 -1.5067,-1.8961 -2.2598,-4.2987 -2.2598,-7.2076 0,-4.9352 1.8312,-8.7665 5.4935,-11.4937 3.6624,-2.7275 8.5065,-4.0909 14.5327,-4.0909 6.0259,0 11.3247,1.4025 15.8961,4.2077 l -2.5713,7.3247 c -4.3118,-2.4936 -8.6496,-3.7403 -13.0133,-3.7403 -2.9089,0 -5.2988,0.6234 -7.1688,1.8703 -1.87,1.2467 -2.8052,3.013 -2.8052,5.2985 0,1.3507 0.4805,2.5197 1.4414,3.5068 0.9613,0.987 2.1561,1.8051 3.5847,2.4545 1.4284,0.6494 3.4416,1.4675 6.039,2.4545 3.5325,1.2988 6.3895,2.5067 8.5714,3.6235 2.1818,1.1169 4.0521,2.6493 5.6106,4.5976 1.5585,1.9479 2.3377,4.4285 2.3377,7.4415 0,4.987 -1.8961,8.8962 -5.6886,11.7275 -3.7921,2.8312 -9.0391,4.2468 -15.7405,4.2468 z m 62.0037,-8.6496 v 7.5586 h -34.2083 v -52.9878 h 32.6498 v 7.5586 h -22.0521 v 13.6366 h 18.9354 v 7.5586 h -18.9354 v 16.6754 z m 49.5357,-17.9223 v 22.5978 c -2.2856,1.1429 -5.078,2.0777 -8.3767,2.8051 -3.2987,0.7274 -6.7663,1.0911 -10.4026,1.0911 -6.1299,0 -11.3119,-1.26 -15.5457,-3.7795 -4.2339,-2.5194 -7.4027,-5.8702 -9.5066,-10.0519 -2.1039,-4.182 -3.1558,-8.7664 -3.1558,-13.7534 0,-4.9351 1.1038,-9.4808 3.3117,-13.6366 2.2077,-4.1559 5.4936,-7.4807 9.8572,-9.974 4.3637,-2.4937 9.6364,-3.7403 15.8185,-3.7403 3.2726,0 6.3507,0.4413 9.2338,1.3246 2.8832,0.883 5.3638,2.1039 7.4416,3.6623 l -2.8052,7.2468 c -1.7663,-1.2985 -3.8313,-2.3635 -6.1948,-3.1949 -2.3639,-0.8311 -4.9221,-1.2467 -7.6754,-1.2467 -3.8444,0 -7.1561,0.8572 -9.9352,2.5716 -2.7793,1.7141 -4.8832,4.0649 -6.3119,7.052 -1.4286,2.9869 -2.143,6.3247 -2.143,10.0131 0,3.7922 0.6755,7.1819 2.0262,10.1688 1.3507,2.9871 3.3506,5.3379 6.0001,7.052 2.6493,1.7144 5.8442,2.5716 9.5845,2.5716 2.5456,0 5.3765,-0.2857 8.4935,-0.8572 v -17.9223 z m 29.4315,26.5719 c -7.4806,0 -13.2207,-1.9352 -17.221,-5.8053 -4,-3.8702 -6.0001,-9.1301 -6.0001,-15.7794 v -32.4941 h 10.5976 v 32.4162 c 0,4.6233 1.078,8.0909 3.2338,10.4026 2.156,2.3116 5.2857,3.4676 9.3897,3.4676 4.0522,0 7.1561,-1.156 9.3119,-3.4676 2.156,-2.3117 3.2337,-5.7793 3.2337,-10.4026 v -32.4162 h 10.5976 v 32.3382 c 0,6.7014 -1.9871,12.0002 -5.961,15.8962 -3.9741,3.8962 -9.7015,5.8444 -17.1822,5.8444 z m 51.7955,-22.5198 h -8.6493 v 21.4288 h -10.5976 v -52.9878 h 19.4808 c 13.4028,0 20.1042,5.091 20.1042,15.2731 0,7.4806 -3.2729,12.2859 -9.8184,14.4156 l 15.9744,23.2991 h -12.2341 z m -8.6493,-7.5586 h 8.8832 c 3.2729,0 5.6755,-0.6752 7.2079,-2.0259 1.5324,-1.3507 2.2986,-3.4027 2.2986,-6.156 0,-5.5066 -3.1688,-8.2599 -9.5065,-8.2599 h -8.8832 z m 62.7826,30.0784 c -5.8184,0 -10.7793,-1.2339 -14.8833,-3.7015 -4.104,-2.4675 -7.208,-5.7923 -9.3119,-9.9742 -2.1038,-4.1817 -3.1558,-8.7922 -3.1558,-13.8311 0,-5.091 1.0389,-9.7146 3.117,-13.8705 2.0778,-4.1559 5.1817,-7.4676 9.3118,-9.9351 4.1298,-2.4676 9.1038,-3.7012 14.9222,-3.7012 5.7662,0 10.7144,1.2336 14.8442,3.7012 4.13,2.4675 7.247,5.7792 9.3509,9.9351 2.1039,4.1559 3.1558,8.7534 3.1558,13.7925 0,5.0911 -1.0519,9.7274 -3.1558,13.9091 -2.1039,4.1819 -5.2078,7.5067 -9.3118,9.9742 -4.104,2.4676 -9.0652,3.7015 -14.8833,3.7015 z m 0.0779,-7.7924 c 3.4804,0 6.4806,-0.8572 9,-2.5716 2.5195,-1.7141 4.4416,-4.0649 5.7663,-7.052 1.3249,-2.9869 1.987,-6.3766 1.987,-10.1688 0,-3.7403 -0.6621,-7.0911 -1.987,-10.0522 -1.3247,-2.9611 -3.2468,-5.2988 -5.7663,-7.0129 -2.5194,-1.7144 -5.5196,-2.5716 -9,-2.5716 -3.5325,0 -6.5585,0.8572 -9.0779,2.5716 -2.5198,1.7141 -4.4289,4.0518 -5.7274,7.0129 -1.2989,2.9611 -1.9483,6.3119 -1.9483,10.0522 0,3.7922 0.6494,7.1819 1.9483,10.1688 1.2985,2.9871 3.2076,5.3379 5.7274,7.052 2.5194,1.7144 5.5454,2.5716 9.0779,2.5716 z m 47.6654,7.7924 c -7.3766,0 -13.4804,-1.4547 -18.3118,-4.3639 l 2.5716,-7.4027 c 2.5974,1.3507 5.1429,2.3508 7.6363,3.0002 2.4936,0.6494 5.1429,0.974 7.9483,0.974 3.1689,0 5.8181,-0.6494 7.9481,-1.948 2.1299,-1.2988 3.1949,-3.1688 3.1949,-5.6106 0,-1.5063 -0.5065,-2.7921 -1.5196,-3.8571 -1.0129,-1.065 -2.2729,-1.948 -3.7792,-2.6495 -1.5066,-0.7013 -3.5844,-1.5194 -6.2339,-2.4546 -3.4286,-1.2466 -6.1949,-2.4026 -8.2988,-3.4676 -2.1038,-1.0647 -3.9092,-2.5452 -5.4155,-4.4416 -1.5067,-1.8961 -2.2598,-4.2987 -2.2598,-7.2076 0,-4.9352 1.8312,-8.7665 5.4935,-11.4937 3.6624,-2.7275 8.5065,-4.0909 14.5327,-4.0909 6.0259,0 11.3247,1.4025 15.8961,4.2077 l -2.5713,7.3247 c -4.3118,-2.4936 -8.6496,-3.7403 -13.0133,-3.7403 -2.9089,0 -5.2988,0.6234 -7.1688,1.8703 -1.87,1.2467 -2.8052,3.013 -2.8052,5.2985 0,1.3507 0.4805,2.5197 1.4414,3.5068 0.9613,0.987 2.1561,1.8051 3.5847,2.4545 1.4284,0.6494 3.4416,1.4675 6.039,2.4545 3.5325,1.2988 6.3895,2.5067 8.5714,3.6235 2.1818,1.1169 4.0521,2.6493 5.6106,4.5976 1.5585,1.9479 2.3377,4.4285 2.3377,7.4415 0,4.987 -1.8961,8.8962 -5.6886,11.7275 -3.7921,2.8312 -9.0391,4.2468 -15.7405,4.2468 z"
             style="fill:#1b1918;fill-rule:evenodd"
             id="path1147" />
        </g>
      </g>
    </g>
  </g>
</svg>
